<svg width="10" height="6" viewBox="0 0 10 6" fill="none" xmlns="http://www.w3.org/2000/svg">
<path d="M4.87812 5.73125C4.76146 5.73125 4.64858 5.70937 4.5395 5.66562C4.42983 5.62187 4.33854 5.56354 4.26562 5.49062L0.240625 1.46563C0.080208 1.30521 0 1.10104 0 0.853124C0 0.605208 0.080208 0.401041 0.240625 0.240625C0.401041 0.080208 0.605208 0 0.853125 0C1.10104 0 1.30521 0.080208 1.46563 0.240625L4.87812 3.65313L8.29062 0.240625C8.45104 0.080208 8.65521 0 8.90312 0C9.15104 0 9.35521 0.080208 9.51562 0.240625C9.67604 0.401041 9.75625 0.605208 9.75625 0.853124C9.75625 1.10104 9.67604 1.30521 9.51562 1.46563L5.49062 5.49062C5.40312 5.57812 5.30833 5.63996 5.20625 5.67612C5.10417 5.71287 4.99479 5.73125 4.87812 5.73125Z" fill="#1C2A37"/>
</svg>
