<svg width="9" height="9" viewBox="0 0 9 9" fill="none" xmlns="http://www.w3.org/2000/svg">
<path d="M0.747499 8.4975C0.557499 8.4975 0.3675 8.4275 0.2175 8.2775C-0.0725 7.9875 -0.0725 7.5075 0.2175 7.2175L7.2175 0.2175C7.5075 -0.0725 7.9875 -0.0725 8.2775 0.2175C8.5675 0.5075 8.5675 0.987498 8.2775 1.2775L1.2775 8.2775C1.1275 8.4275 0.937499 8.4975 0.747499 8.4975Z" fill="#163C68"/>
<path d="M7.7475 8.4975C7.5575 8.4975 7.3675 8.4275 7.2175 8.2775L0.2175 1.2775C-0.0725 0.987498 -0.0725 0.5075 0.2175 0.2175C0.5075 -0.0725 0.987498 -0.0725 1.2775 0.2175L8.2775 7.2175C8.5675 7.5075 8.5675 7.9875 8.2775 8.2775C8.1275 8.4275 7.9375 8.4975 7.7475 8.4975Z" fill="#163C68"/>
</svg>
